<?xml version="1.0" encoding="UTF-8" standalone="no"?>
<svg
   xmlns:dc="http://purl.org/dc/elements/1.1/"
   xmlns:cc="http://creativecommons.org/ns#"
   xmlns:rdf="http://www.w3.org/1999/02/22-rdf-syntax-ns#"
   xmlns:svg="http://www.w3.org/2000/svg"
   xmlns="http://www.w3.org/2000/svg"
   xmlns:sodipodi="http://sodipodi.sourceforge.net/DTD/sodipodi-0.dtd"
   xmlns:inkscape="http://www.inkscape.org/namespaces/inkscape"
   inkscape:export-ydpi="96.000008"
   inkscape:export-xdpi="96.000008"
   inkscape:export-filename="/Users/indrekv/logo.png"
   inkscape:version="1.0rc1 (09960d6, 2020-04-09)"
   sodipodi:docname="logo_icon.svg"
   id="svg839"
   version="1.1"
   viewBox="0 0 270.93747 270.944"
   height="1024"
   width="1024">
  <metadata
     id="metadata845">
    <rdf:RDF>
      <cc:Work
         rdf:about="">
        <dc:format>image/svg+xml</dc:format>
        <dc:type
           rdf:resource="http://purl.org/dc/dcmitype/StillImage" />
        <dc:title></dc:title>
      </cc:Work>
    </rdf:RDF>
  </metadata>
  <defs
     id="defs843" />
  <sodipodi:namedview
     inkscape:current-layer="svg839"
     inkscape:window-maximized="0"
     inkscape:window-y="25"
     inkscape:window-x="0"
     inkscape:cy="481.43037"
     inkscape:cx="205.61563"
     inkscape:zoom="0.30841462"
     showgrid="false"
     id="namedview841"
     inkscape:window-height="664"
     inkscape:window-width="1344"
     inkscape:pageshadow="2"
     inkscape:pageopacity="0"
     guidetolerance="10"
     gridtolerance="10"
     objecttolerance="10"
     borderopacity="1"
     bordercolor="#666666"
     pagecolor="#ffffff" />
  <path
     inkscape:connector-curvature="0"
     id="path833"
     style="fill:#000000;stroke-width:0.580827"
     d="m 120.94452,253.18998 c -8.1015,-1.03364 -22.06962,-4.74915 -30.478433,-8.07357 A 145.26845,145.26845 0 0 1 61.13304,228.57815 C 41.074817,213.12942 24.592438,187.23253 19.312488,162.87212 A 111.74496,111.74496 0 0 1 16.407119,136.4165 c 0,-15.58841 1.815856,-27.60099 6.201845,-40.563422 9.777684,-28.941942 33.691105,-54.810899 63.080029,-68.220295 8.325,-3.799329 23.187077,-7.794211 36.121547,-9.693875 a 156.44294,156.44294 0 0 1 30.19908,0 c 12.65512,2.039345 24.86326,5.754865 35.4511,10.811325 a 117.89093,117.89093 0 0 1 60.39814,67.130781 c 4.74916,13.716696 6.7047,24.723586 6.67677,38.468216 0,25.31023 -6.7047,47.77096 -19.94648,67.10285 -10.89514,15.92365 -19.69505,24.19278 -37.5463,35.42314 -13.13005,8.24119 -31.62383,14.47097 -48.49732,16.37064 a 184.37919,184.37919 0 0 1 -27.60101,-0.0559 m 27.88038,-13.577 a 107.83388,107.83388 0 0 0 49.36333,-18.71728 c 6.73264,-4.74916 17.6557,-15.5605 22.43281,-22.23725 5.75485,-8.01771 5.67105,-7.76627 5.252,-16.84555 -0.72633,-15.53255 -4.72122,-24.975 -15.92366,-37.54632 a 60.062915,60.062915 0 0 0 -28.88606,-18.52172 c -7.12374,-2.15108 -10.00119,-3.68758 -13.26972,-7.20754 a 18.437919,18.437919 0 0 1 -5.4755,-12.23609 c -0.36319,-5.53137 1.25714,-9.442446 6.14597,-14.610651 5.95042,-6.31359 11.09068,-8.325 21.31536,-8.24119 10.47608,0.08389 17.06904,2.65394 28.49495,11.118623 6.78851,5.028525 10.64371,8.688178 12.76687,12.068448 0.58667,0.94987 1.84378,2.70982 2.79363,3.91109 0.92192,1.22921 2.98919,4.35805 4.58154,6.98406 2.87742,4.74915 2.87742,4.74915 2.45838,2.12316 -1.59237,-9.97325 -6.53707,-25.254375 -10.50402,-32.406053 -6.34153,-11.565602 -15.86779,-24.108976 -23.3547,-30.729862 A 131.30033,131.30033 0 0 0 182.23664,40.315837 167.61744,167.61744 0 0 0 153.01533,30.789578 c -6.3974,-1.117449 -27.93624,-0.977769 -35.25554,0.195554 -24.136908,3.911072 -46.653513,15.811911 -61.571466,32.489845 -8.045637,9.023407 -16.230957,21.957885 -19.946475,31.51208 -1.955536,5.140263 -4.190435,13.213843 -5.587248,20.309653 l -1.201259,6.11803 c -0.195558,0.7822 0.921897,-0.83809 2.458389,-3.63171 a 73.751673,73.751673 0 0 1 23.10327,-25.421983 c 9.442449,-6.369458 16.622065,-8.771978 26.14832,-8.771978 9.44245,0 14.945888,1.955539 20.672819,7.431042 a 18.996643,18.996643 0 0 1 6.59295,14.722399 13.96812,13.96812 0 0 1 -1.89967,8.26913 c -3.10092,6.31358 -7.123736,8.91166 -19.471552,12.54337 -10.61577,3.12885 -17.264597,7.15168 -25.142616,15.25319 -10.448154,10.75545 -15.420802,21.79027 -16.510316,36.73616 -0.893961,12.43162 -1.005705,11.78909 3.04505,17.87919 4.553605,6.87232 16.147147,18.54966 23.717864,23.85755 a 111.74496,111.74496 0 0 0 76.65705,19.33188 m -20.75663,-63.61082 c -13.96812,-1.20127 -22.76804,-5.11233 -31.567953,-13.96812 -6.22978,-6.28566 -8.101507,-9.41452 -8.101507,-13.54908 0,-3.71552 2.290789,-6.14598 5.698989,-6.14598 2.793633,0 4.581544,1.28508 7.822151,5.69901 1.313,1.81587 3.07298,3.91106 3.88314,4.69328 2.37458,2.2349 8.01769,5.699 11.37004,6.98406 11.98465,4.4698 29.89178,3.60377 40.87073,-1.95553 4.60947,-2.34665 9.52626,-6.84439 10.97893,-10.05705 1.64825,-3.63172 3.4641,-5.33583 6.14598,-5.7828 6.36946,-1.03365 9.49832,5.61518 5.75486,12.15225 a 55.872478,55.872478 0 0 1 -7.12373,8.325 c -4.83297,4.88885 -6.22978,5.92249 -11.31418,8.38088 -9.13515,4.4698 -21.53884,6.34153 -34.41745,5.22408 m 0.16779,-30.92542 a 26.539428,26.539428 0 0 1 -12.48766,-11.62147 13.96812,13.96812 0 0 1 -1.75999,-8.01771 c 0,-3.96694 0.22372,-4.97264 1.89967,-8.18532 a 16.203019,16.203019 0 0 1 10.78337,-8.4088 c 4.74916,-1.39683 14.69447,-0.39111 19.94648,1.98346 8.77198,3.99489 11.73322,12.79481 7.45897,22.06964 -4.77708,10.3364 -16.31476,15.75603 -25.84102,12.1802 m 12.26402,-19.10839 c 2.98918,-1.81585 3.38028,-4.60949 1.03365,-7.4031 q -3.10093,-3.71552 -9.02341,-2.43045 c -3.35236,0.72632 -6.34154,2.98915 -6.34154,4.74915 0,5.53138 8.54849,8.5485 14.3313,5.0844 M 86.582951,109.2066 a 6.7046976,6.7046976 0 0 0 3.045053,-7.62659 7.4869123,7.4869123 0 0 0 -10.727518,-4.609481 c -3.352349,1.648253 -4.749161,4.274241 -3.883136,7.458971 0.586671,2.15111 2.90536,4.88885 4.693287,5.53139 1.899675,0.6984 5.028525,0.33521 6.844378,-0.7543 m 105.794545,0 a 11.174496,11.174496 0 0 0 2.62601,-3.26853 c 1.31299,-2.79362 0.47491,-5.81074 -2.34665,-8.29706 -2.65395,-2.318709 -4.2463,-2.653943 -6.98407,-1.536493 -6.06215,2.542198 -6.11803,10.336403 -0.0559,13.325593 q 3.82727,1.84378 6.76057,-0.22372" />
</svg>
