<svg xmlns="http://www.w3.org/2000/svg" width="32" height="32" viewBox="0 0 8.467 8.467" xmlns:v="https://vecta.io/nano"><path d="M3.717 8.419a5.53 5.53 0 0 1-1.084-.287 5.165 5.165 0 0 1-1.043-.588C.877 6.994.291 6.074.103 5.208A3.973 3.973 0 0 1 0 4.267c0-.554.065-.981.221-1.442C.568 1.796 1.419.876 2.463.399c.296-.135.824-.277 1.284-.345a5.562 5.562 0 0 1 1.074 0c.45.073.884.205 1.26.384a4.192 4.192 0 0 1 2.147 2.387c.169.488.238.879.237 1.368 0 .9-.238 1.698-.709 2.386-.387.566-.7.86-1.335 1.259-.467.293-1.124.515-1.724.582a6.555 6.555 0 0 1-.981-.002m.991-.483a3.834 3.834 0 0 0 1.755-.665c.239-.169.628-.553.798-.791.205-.285.202-.276.187-.599-.026-.552-.168-.888-.566-1.335a2.135 2.135 0 0 0-1.027-.659c-.253-.076-.356-.131-.472-.256a.656.656 0 0 1-.195-.435c-.013-.197.045-.336.219-.519.212-.224.394-.296.758-.293.372.003.607.094 1.013.395.241.179.378.309.454.429.021.034.066.096.099.139a3.95 3.95 0 0 1 .163.248c.102.169.102.169.087.075a4.41 4.41 0 0 0-.373-1.152c-.225-.411-.564-.857-.83-1.093A4.668 4.668 0 0 0 5.896.85 5.959 5.959 0 0 0 4.857.511a6.46 6.46 0 0 0-1.253.007c-.858.139-1.659.562-2.189 1.155-.286.321-.577.781-.709 1.12a4.96 4.96 0 0 0-.199.722l-.043.218c-.007.028.033-.03.087-.129a2.622 2.622 0 0 1 .821-.904c.336-.226.591-.312.93-.312s.531.07.735.264a.675.675 0 0 1 .234.523.497.497 0 0 1-.068.294c-.11.224-.253.317-.692.446-.377.111-.614.254-.894.542a1.94 1.94 0 0 0-.587 1.306c-.032.442-.036.419.108.636.162.244.574.66.843.848a3.973 3.973 0 0 0 2.725.687M3.97 5.674c-.497-.043-.809-.182-1.122-.497-.221-.223-.288-.335-.288-.482 0-.132.081-.219.203-.219.099 0 .163.046.278.203a1.59 1.59 0 0 0 .138.167c.084.079.285.203.404.248a2.04 2.04 0 0 0 1.453-.07c.164-.083.339-.243.39-.358.059-.129.123-.19.219-.206.226-.037.338.2.205.432a1.986 1.986 0 0 1-.253.296c-.172.174-.221.211-.402.298-.325.159-.766.225-1.224.186m.006-1.1a.944.944 0 0 1-.444-.413.497.497 0 0 1-.063-.285c0-.141.008-.177.068-.291a.576.576 0 0 1 .383-.299c.169-.05.522-.014.709.071.312.142.417.455.265.785-.17.368-.58.56-.919.433m.436-.679c.106-.065.12-.164.037-.263q-.11-.132-.321-.086c-.119.026-.225.106-.225.169 0 .197.304.304.51.181m-1.917-.596a.238.238 0 0 0 .108-.271.266.266 0 0 0-.381-.164c-.119.059-.169.152-.138.265.021.076.103.174.167.197s.179.012.243-.027m3.761 0a.397.397 0 0 0 .093-.116c.047-.099.017-.207-.083-.295-.094-.082-.151-.094-.248-.055-.216.09-.218.368-.002.474q.136.066.24-.008"/></svg>